<?xml version="1.0" encoding="utf-8"?>
<!-- Generator: Adobe Illustrator 24.0.1, SVG Export Plug-In . SVG Version: 6.00 Build 0)  -->
<svg version="1.1" id="Слой_1" xmlns="http://www.w3.org/2000/svg" xmlns:xlink="http://www.w3.org/1999/xlink" x="0px" y="0px" height="42px" width="42px"
	 viewBox="0 0 490.7 509.7" style="enable-background:new 0 0 490.7 509.7;" xml:space="preserve">
<style type="text/css">
	.st0{fill:#F99A04;}
	.st1{fill:none;stroke:#000000;stroke-width:15;stroke-miterlimit:10;}
</style>
<g>
	<path d="M374.8,106.6c-75.9-55.2-127-57.8-165.7-8.6c-6,7.5-10.1,16.3-12,25.7c-0.3,1.4-1.2,2.6-2.4,3.3l-18.6,10.8
		c-2.4,1.4-5.4,0.6-6.8-1.8l-12.7-21.9c-1.9-3.3-6.2-4.5-9.6-2.6l0,0c-2,1.1-4.4,0.8-6-0.8c-4.4,1.8-8.4,4.7-12.5,7.2
		c0.5,2.1-0.3,4.4-2.3,5.6l0,0c-3.3,1.9-4.5,6.2-2.5,9.6l12.7,21.9c1.4,2.4,0.6,5.4-1.8,6.8l-18.6,10.8c-1.2,0.7-2.7,0.9-4,0.4
		c-9.1-3-18.8-3.9-28.3-2.4c-61.9,9-85.1,54.7-74.9,148c8.2,75.4,46.8,142,80.8,168.9c14.5,11.4,28.9,16.7,41.6,15.1
		c6.6-0.8,12.9-3,18.7-6.3c29.8-17.3,41.6-64.7,42.2-108.2c0.1-14.5,7.9-27.9,20.2-31.2l90.6-52.5c12.8-11.3,28.3-11.3,40.9-4.2
		c45.2,25,103,39.1,129.7,4c7.7-10.3,10.4-25.3,7.6-43.6C474.8,217.9,436.2,151.2,374.8,106.6z M141.9,136.5
		c-1.4-2.4-0.6-5.4,1.8-6.8c2.4-1.4,5.4-0.6,6.8,1.8l6.7,11.6c1.4,2.4,0.6,5.4-1.8,6.8c-2.4,1.4-5.4,0.6-6.8-1.8L141.9,136.5z
		 M467.3,262.8c2.2,14.5,0.5,25.9-4.9,33.1c-9.7,12.8-70.6,14.8-111.7-7.9c-17-9.4-37.7-9.3-54.5,0.3l-90.6,52.5
		c-16.7,9.9-27.1,27.7-27.4,47.1c-0.7,43.7-13.9,96.3-48.7,100.8c-8.9,1.1-19.7-3.1-31.2-12.2c-31.7-25-67.8-87.8-75.5-159.4
		c-8.3-76.8,7.4-108.7,31.7-122.8c9.7-5.3,20.4-8.6,31.4-9.9c8.8-1.5,17.8-0.3,25.9,3.4c2.1,0.9,4.5,0.8,6.4-0.3l88.7-51.4
		c2-1.1,3.3-3.2,3.5-5.4c0.8-8.9,4.3-17.3,9.9-24.2c24.7-31.5,59.5-51.9,146.4,11.2C424.8,160.3,461.4,222.8,467.3,262.8z"/>
	<path d="M398.7,180.7c0.1,0.3,0.3,0.5,0.5,0.7c11.8,14.1,22,29.4,30.5,45.7c1.8,3.4,6,4.8,9.4,3l0.3-0.2c3.2-1.9,4.4-5.9,2.7-9.2
		c-9-17.4-19.9-33.7-32.5-48.7c-3.4-4.1-10.4-3.3-12.4,3.1c-0.4,1.3-0.2,2.7,0.5,3.9L398.7,180.7z"/>
	<path class="st0" d="M126.2,260.5l-13.8,8c-2.4,1.4-5.4,0.6-6.8-1.8l-8-13.8c-1.9-3.3-6.2-4.5-9.6-2.6c0,0,0,0,0,0l-22.5,13
		c-2.4,1.4-3.2,4.4-1.8,6.8l9,15.6c1.4,2.4,0.6,5.4-1.8,6.8l-15.6,9c-2.4,1.4-3.2,4.4-1.8,6.8l14,24.2c1.4,2.4,4.4,3.2,6.8,1.8
		l15.6-9c2.4-1.4,5.4-0.6,6.8,1.8l9,15.6c1.4,2.4,4.4,3.2,6.8,1.8l22.5-13c3.3-1.9,4.5-6.2,2.6-9.6c0,0,0,0,0,0l-8-13.8
		c-1.4-2.4-0.6-5.4,1.8-6.8l13.8-8c3.3-1.9,4.5-6.2,2.6-9.6c0,0,0,0,0,0l-12-20.8C133.8,259.7,129.5,258.5,126.2,260.5
		C126.2,260.5,126.2,260.5,126.2,260.5z M127.8,287.3l-15.6,9c-2.4,1.4-3.2,4.4-1.8,6.8l9,15.6c1.4,2.4,0.6,5.4-1.8,6.8l0,0
		c-2.4,1.4-5.4,0.6-6.8-1.8l-8-13.8c-1.9-3.3-6.2-4.5-9.6-2.6c0,0,0,0,0,0l-13.8,8c-2.4,1.4-5.4,0.6-6.8-1.8h0
		c-1.4-2.4-0.6-5.4,1.8-6.8l13.8-8c3.3-1.9,4.5-6.2,2.6-9.6c0,0,0,0,0,0l-8-13.8c-1.4-2.4-0.6-5.4,1.8-6.8l0,0
		c2.4-1.4,5.4-0.6,6.8,1.8l9,15.6c1.4,2.4,4.4,3.2,6.8,1.8l15.6-9c2.4-1.4,5.4-0.6,6.8,1.8l0,0C131,282.8,130.2,285.9,127.8,287.3z"
		/>
	<path d="M257.1,268.6l-50.3,29.1c-1.4,0.8-2.3,2.2-2.5,3.8c-0.7,7,5.8,10.4,10.5,7.7l0,0l50.3-29.1c1.4-0.8,2.3-2.2,2.5-3.8
		C268.4,269.2,261.8,265.9,257.1,268.6z"/>
	<path d="M292.2,170.4c13.8-8,16.2-28.1,1.5-39c-4.3-3.2-9.6-4.6-14.9-4c-18.1,2.2-26,20.8-18.1,34.6
		C267.2,173,281.2,176.8,292.2,170.4z M276.2,142.7c5.8-3.3,13.7,0.4,13.6,8.6c0,1.1-0.3,2.2-0.8,3.1c-4,7.1-12.7,6.4-16.1,0.6
		C270.4,150.7,271.9,145.2,276.2,142.7z"/>
	<path d="M305.9,194.1c-13.8,8-16.2,28.1-1.5,39c4.3,3.2,9.6,4.6,14.9,4c18.1-2.2,26-20.8,18.1-34.6l0,0
		C331,191.4,316.9,187.7,305.9,194.1z M322,221.7c-5.8,3.3-13.7-0.4-13.6-8.6c0-1.1,0.3-2.2,0.8-3.1c4-7.1,12.7-6.4,16.1-0.6l0,0
		C327.7,213.7,326.3,219.2,322,221.7z"/>
	<path d="M319.3,143.9c-13.8,8-16.2,28.1-1.5,39c4.3,3.2,9.6,4.6,14.9,4c18.1-2.2,26-20.8,18.1-34.6l0,0
		C344.3,141.3,330.3,137.6,319.3,143.9z M335.3,171.6c-5.8,3.3-13.7-0.4-13.6-8.6c0-1.1,0.3-2.2,0.8-3.1c4-7.1,12.7-6.4,16.1-0.6
		C341.1,163.6,339.6,169.1,335.3,171.6z"/>
	<path d="M287.2,189.1c-8-13.8-28.1-16.2-39-1.5c-3.2,4.3-4.6,9.6-4,14.9c2.2,18.1,20.8,26,34.6,18.1l0,0
		C289.9,214.1,293.6,200.1,287.2,189.1z M271.9,208.4c-5.8,3.3-13.7-0.4-13.6-8.6c0-1.1,0.3-2.2,0.8-3.1c4-7.1,12.7-6.4,16.1-0.6
		C277.6,200.4,276.2,205.9,271.9,208.4L271.9,208.4z"/>
</g>
<path d="M102.7,134.7"/>
<path class="st1" d="M134,116.4c2,2.8-0.7-0.9-1.9-2.3c-1-1.1-4.5-3.3-4.6-3.4c-1.6-1.7-24.1-2.4-28.9-7.1
	c-12.1-12,46-26.4,41.9-67.1C136.1-6.5,60.6,87,53.1,41.1c-3.7-22.9,23.5-22.3,31.7-29"/>
</svg>
