<svg fill="#8E8D8A" height="511pt" viewBox="1 -74 511.999 511" width="511pt" xmlns="http://www.w3.org/2000/svg"><path d="m343.75 114.941406c-9.425781-9.242187-21.796875-14.359375-34.949219-14.417968v-48.539063c0-15.503906-6.917969-30.734375-18.507812-40.734375-9.757813-8.421875-21.734375-12.082031-33.726563-10.316406-53.339844 7.863281-100.914062 7.863281-154.25 0-11.996094-1.769532-23.96875 1.890625-33.722656 10.3125-11.585938 10-18.503906 25.230468-18.503906 40.738281v48.539063c-7.082032.035156-13.945313 1.539062-20.386719 4.449218-3.777344 1.703125-5.453125 6.144532-3.75 9.921875 1.703125 3.777344 6.148437 5.457031 9.921875 3.75 4.808594-2.171875 9.964844-3.207031 15.296875-3.113281 1.683594.035156 3.339844.191406 4.960937.460938.117188.023437.234376.042968.355469.0625 16.621094 2.964843 29.390625 17.988281 29.390625 35.757812v91.925781c0 12.273438 9.984375 22.257813 22.261719 22.257813h142.605469c12.273437 0 22.257812-9.984375 22.257812-22.257813v-91.925781c0-19.621094 15.570313-35.898438 34.710938-36.28125 9.621094-.179688 18.679687 3.402344 25.535156 10.121094 6.859375 6.722656 10.636719 15.710937 10.636719 25.3125 0 13.71875-8.046875 26.332031-20.496094 32.132812-2.644531 1.230469-4.332031 3.882813-4.332031 6.796875v99.738281c0 12.363282-10.054688 22.417969-22.417969 22.417969h-234.398437c-12.359376 0-22.417969-10.054687-22.417969-22.417969v-99.738281c0-2.914062-1.6875-5.5625-4.332031-6.796875-12.449219-5.800781-20.492188-18.414062-20.492188-32.132812 0-5.347656 1.15625-10.480469 3.441406-15.253906 1.785156-3.738282.203125-8.21875-3.535156-10.003907-3.738281-1.785156-8.214844-.203125-10 3.535157-3.257812 6.8125-4.90625 14.121093-4.90625 21.722656 0 17.882812 9.601562 34.441406 24.824219 43.445312v95.222656c0 20.632813 16.785156 37.417969 37.417969 37.417969h7.035156v22.847657c0 7.992187 6.503906 14.5 14.496094 14.5h12.121093c7.996094 0 14.5-6.507813 14.5-14.5v-22.847657h138.09375v22.847657c0 7.992187 6.503907 14.5 14.5 14.5h12.121094c7.996094 0 14.5-6.507813 14.5-14.5v-22.847657h7.03125c20.632813 0 37.421875-16.785156 37.421875-37.417969v-95.222656c15.222656-9.003906 24.824219-25.566406 24.824219-43.445312 0-13.664063-5.375-26.457032-15.136719-36.023438zm-85.746094 128.796875c0 4-3.257812 7.257813-7.257812 7.257813h-142.605469c-4.003906 0-7.261719-3.257813-7.261719-7.257813v-31.574219h157.125zm0-91.925781v45.351562h-157.125v-45.351562c0-22.925781-15.148437-42.617188-35.789062-49.0625v-50.765625c0-11.039063 5.097656-22.300781 13.308594-29.386719 4.527343-3.90625 11.972656-8.269531 21.730468-6.824218 54.851563 8.082031 103.773438 8.082031 158.628906 0 9.757813-1.441407 17.203126 2.917968 21.734376 6.828124 8.207031 7.085938 13.308593 18.34375 13.308593 29.382813v50.765625c-20.644531 6.441406-35.796875 26.136719-35.796875 49.0625zm-162.609375 197.585938h-11.117187v-22.347657h11.117187zm179.214844 0h-11.121094v-22.347657h11.121094zm0 0"/><path d="m139.796875 78.675781h-2.625v-2.625c0-4.144531-3.359375-7.5-7.5-7.5s-7.5 3.355469-7.5 7.5v2.625h-2.625c-4.140625 0-7.5 3.355469-7.5 7.5 0 4.140625 3.359375 7.5 7.5 7.5h2.625v2.625c0 4.140625 3.359375 7.5 7.5 7.5s7.5-3.359375 7.5-7.5v-2.625h2.625c4.140625 0 7.5-3.359375 7.5-7.5 0-4.144531-3.359375-7.5-7.5-7.5zm0 0"/><path d="m239.335938 78.675781h-2.621094v-2.625c0-4.144531-3.359375-7.5-7.5-7.5-4.144532 0-7.5 3.355469-7.5 7.5v2.625h-2.625c-4.144532 0-7.5 3.355469-7.5 7.5 0 4.140625 3.355468 7.5 7.5 7.5h2.625v2.625c0 4.140625 3.355468 7.5 7.5 7.5 4.140625 0 7.5-3.359375 7.5-7.5v-2.625h2.621094c4.144531 0 7.5-3.359375 7.5-7.5 0-4.144531-3.355469-7.5-7.5-7.5zm0 0"/><path d="m496.054688 163.945312h-48.554688v-33.808593h26.492188c4.433593 0 8.601562-2.167969 11.148437-5.800781 2.542969-3.628907 3.160156-8.289063 1.644531-12.457032l-16.480468-45.410156c-1.949219-5.363281-7.089844-8.964844-12.796876-8.964844h-35.015624c-5.707032 0-10.847657 3.601563-12.796876 8.96875l-16.480468 45.40625c-1.515625 4.167969-.898438 8.828125 1.644531 12.457032 2.546875 3.632812 6.714844 5.800781 11.148437 5.800781h26.492188v33.808593h-55.867188c-8.792968 0-15.945312 7.152344-15.945312 15.945313v9.011719c0 8.792968 7.152344 15.945312 15.945312 15.945312h.222657v14.34375c0 4.144532 3.355469 7.5 7.5 7.5 4.140625 0 7.5-3.355468 7.5-7.5v-14.34375h88.976562v49.796875h-88.976562v-5.453125c0-4.144531-3.359375-7.5-7.5-7.5-4.144531 0-7.5 3.355469-7.5 7.5v73.011719c0 5.125 3.164062 9.523437 7.644531 11.347656v18.390625c0 6.867188 5.589844 12.457032 12.457031 12.457032h11.085938c6.867187 0 12.457031-5.589844 12.457031-12.457032v-17.496094h29v17.496094c0 6.867188 5.589844 12.457032 12.457031 12.457032h11.085938c6.867187 0 12.457031-5.589844 12.457031-12.457032v-17.644531c5.847656-.917969 10.332031-5.992187 10.332031-12.09375v-117.355469h.222657c8.792968 0 15.945312-7.152344 15.945312-15.945312v-9.011719c0-8.792969-7.152344-15.945313-15.945312-15.945313zm-72.589844-91.441406h33.070312l15.476563 42.632813h-64.023438zm57.367187 197.140625v49.800781h-88.976562v-49.800781zm-75.332031 79.75h-6v-14.949219h6zm65 0h-6v-14.949219h6zm26.5-160.492187c0 .519531-.425781.945312-.945312.945312h-119.421876c-.519531 0-.945312-.425781-.945312-.945312v-9.011719c0-.523437.425781-.945313.945312-.945313h119.421876c.519531 0 .945312.421876.945312.945313zm0 0"/><path d="m441.667969 224.945312c4.140625 0 7.5-3.355468 7.5-7.5 0-4.144531-3.359375-7.5-7.5-7.5h-10.648438c-4.140625 0-7.5 3.355469-7.5 7.5 0 4.144532 3.359375 7.5 7.5 7.5zm0 0"/><path d="m431.019531 289.945312h10.648438c4.140625 0 7.5-3.355468 7.5-7.5 0-4.144531-3.359375-7.5-7.5-7.5h-10.648438c-4.140625 0-7.5 3.355469-7.5 7.5 0 4.144532 3.359375 7.5 7.5 7.5zm0 0"/></svg>