<svg fill="#8E8D8A" height="512pt" viewBox="0 -33 512 512" width="512pt" xmlns="http://www.w3.org/2000/svg"><path d="m110.769531 324.527344c0-24.773438-45.492187-15.117188-45.492187-48.710938 0-20.714844 17.359375-26.871094 32.335937-26.871094 9.097657 0 25.472657 2.378907 25.472657 10.078126 0 2.796874-1.957032 7.976562-6.15625 7.976562-3.78125 0-7.421876-5.316406-19.316407-5.316406-10.21875 0-17.496093 3.917968-17.496093 12.734375 0 20.71875 45.488281 11.339843 45.488281 48.570312 0 20.015625-13.4375 29.8125-31.910157 29.8125-18.199218 0-30.933593-9.515625-30.933593-16.515625 0-3.359375 2.9375-7.980468 6.4375-7.980468 5.039062 0 8.398437 11.058593 23.933593 11.058593 10.078126 0 17.636719-4.757812 17.636719-14.835937zm0 0"/><path d="m132.328125 345.523438c0-.421876 0-.839844.136719-1.261719l27.855468-90.699219c1.117188-3.359375 5.179688-5.039062 9.378907-5.039062 4.195312 0 8.398437 1.679687 9.515625 5.039062l27.714844 90.699219c.140624.421875.277343.839843.277343 1.261719 0 3.5-5.179687 6.15625-9.375 6.15625-2.382812 0-4.339843-.839844-5.039062-3.078126l-5.738281-19.875h-34.574219l-5.738281 19.875c-.699219 2.238282-2.660157 3.078126-5.179688 3.078126-4.058594 0-9.234375-2.519532-9.234375-6.15625zm51.367187-28.695313-13.996093-48.007813-13.996094 48.007813zm0 0"/><path d="m266.976562 254.125c0-3.359375 3.640626-4.761719 7.417969-4.761719 3.640625 0 7.417969 1.398438 7.417969 4.761719v67.183594c0 22.675781-13.996094 31.210937-32.050781 31.210937-17.917969 0-31.914063-8.535156-31.914063-31.210937v-67.183594c0-3.359375 3.640625-4.761719 7.417969-4.761719 3.640625 0 7.417969 1.398438 7.417969 4.761719v67.183594c0 12.316406 6.4375 18.054687 17.074218 18.054687 10.777344 0 17.21875-5.738281 17.21875-18.054687zm0 0"/><path d="m348.160156 346.222656-33.453125-63.6875v64.246094c0 3.21875-3.640625 4.898438-7.417969 4.898438-3.640624 0-7.417968-1.679688-7.417968-4.898438v-92.519531c0-3.5 3.636718-4.898438 7.417968-4.898438 5.316407 0 7.835938 1.960938 11.195313 8.398438l31.074219 60.605469v-64.246094c0-3.359375 3.777344-4.757813 7.417968-4.757813 3.777344 0 7.417969 1.398438 7.417969 4.757813v92.660156c0 3.21875-3.640625 4.898438-7.417969 4.898438-3.640624 0-6.855468-1.816407-8.816406-5.457032zm0 0"/><path d="m375.59375 345.523438c0-.421876 0-.839844.140625-1.261719l27.855469-90.699219c1.117187-3.359375 5.175781-5.039062 9.375-5.039062 4.199218 0 8.398437 1.679687 9.519531 5.039062l27.710937 90.699219c.140626.421875.28125.839843.28125 1.261719 0 3.5-5.179687 6.15625-9.378906 6.15625-2.378906 0-4.339844-.839844-5.039062-3.078126l-5.734375-19.875h-34.574219l-5.738281 19.875c-.699219 2.238282-2.660157 3.078126-5.179688 3.078126-4.0625 0-9.238281-2.519532-9.238281-6.15625zm51.367188-28.695313-13.996094-48.007813-13.996094 48.007813zm0 0"/><path d="m488.148438 159.027344h-52.460938c-1.378906-1.921875-3.011719-3.675782-4.894531-5.210938l-72.917969-59.539062c-3.207031-2.621094-7.9375-2.144532-10.558594 1.066406s-2.144531 7.9375 1.066406 10.558594l65.0625 53.125h-37.710937l-80.808594-66.347656c5.554688-5.667969 9.878907-12.535157 12.550781-20.175782l13.917969 11.363282c3.207031 2.621093 7.9375 2.144531 10.558594-1.066407 2.621094-3.210937 2.144531-7.9375-1.066406-10.558593l-20.378907-16.640626c.007813-.355468.027344-.710937.027344-1.066406 0-30.070312-24.464844-54.535156-54.535156-54.535156-30.074219 0-54.535156 24.464844-54.535156 54.535156 0 .382813.019531.761719.027344 1.140625-41.171876 33.777344-124.136719 101.90625-125.171876 103.351563h-52.46875c-13.152343 0-23.851562 10.699218-23.851562 23.851562v238.621094c0 13.15625 10.699219 23.855469 23.851562 23.855469h91.726563c4.144531 0 7.503906-3.359375 7.503906-7.503907 0-4.148437-3.359375-7.507812-7.503906-7.507812h-91.726563c-4.875 0-8.84375-3.964844-8.84375-8.84375v-28.203125h481.984376v28.203125c0 4.878906-3.96875 8.84375-8.84375 8.84375h-337.714844c-4.148438 0-7.507813 3.359375-7.507813 7.507812 0 4.144532 3.359375 7.503907 7.507813 7.503907h337.714844c13.152343 0 23.851562-10.699219 23.851562-23.855469v-238.621094c0-13.152344-10.699219-23.851562-23.851562-23.851562zm-258.847657-56.96875c7.898438 4.457031 17.003907 7.011718 26.699219 7.011718s18.800781-2.554687 26.699219-7.007812l69.382812 56.964844h-192.160156zm26.699219-87.050782c21.792969 0 39.527344 17.734376 39.527344 39.527344 0 21.792969-17.734375 39.527344-39.527344 39.527344s-39.527344-17.734375-39.527344-39.527344c0-21.792968 17.734375-39.527344 39.527344-39.527344zm-51.480469 57.496094c2.675781 7.640625 7 14.507813 12.554688 20.171875l-80.808594 66.351563h-37.710937zm292.472657 305.785156h-481.984376v-152.195312h481.984376zm0-167.203124h-481.984376v-28.207032c0-4.875 3.96875-8.84375 8.84375-8.84375h464.296876c4.875 0 8.84375 3.96875 8.84375 8.84375zm0 0"/></svg>