<svg fill="#8E8D8A" viewBox="0 -65 511.99854 511" xmlns="http://www.w3.org/2000/svg"><path d="m354.484375 234.160156c-26.488281-25.511718-61.464844-39.5625-98.484375-39.5625-37.027344 0-72.007812 14.054688-98.496094 39.574219-4.886718 4.707031-9.464844 9.792969-13.609375 15.113281-9.703125 12.46875-8.542969 30.359375 2.691407 41.652344.019531.019531.039062.039062.058593.058594 5.964844 5.964844 13.886719 9.25 22.300781 9.25 9.882813 0 19.078126-4.484375 25.226563-12.308594 1.925781-2.453125 4.03125-4.824219 6.253906-7.042969 14.808594-14.808593 34.542969-22.964843 55.574219-22.964843 21.027344 0 40.765625 8.15625 55.574219 22.960937 2.214843 2.21875 4.320312 4.589844 6.253906 7.046875 6.148437 7.820312 15.339844 12.308594 25.222656 12.308594h.003907c8.414062 0 16.335937-3.285156 22.296874-9.25.023438-.019532.042969-.039063.0625-.058594 11.234376-11.292969 12.394532-29.183594 2.6875-41.652344-4.144531-5.324218-8.726562-10.410156-13.617187-15.125zm.265625 46.226563c-.015625.015625-.03125.03125-.042969.046875-3.128906 3.105468-7.265625 4.816406-11.65625 4.816406-5.25 0-10.144531-2.398438-13.433593-6.582031-2.300782-2.925781-4.804688-5.746094-7.441407-8.378907-17.636719-17.644531-41.140625-27.355468-66.175781-27.355468-25.039062 0-48.539062 9.714844-66.179688 27.355468-2.644531 2.644532-5.144531 5.460938-7.441406 8.382813-3.285156 4.179687-8.179687 6.578125-13.433594 6.578125-4.390624 0-8.523437-1.710938-11.652343-4.816406-.015625-.011719-.03125-.027344-.042969-.042969-5.949219-5.949219-6.601562-15.359375-1.519531-21.890625 3.707031-4.757812 7.804687-9.308594 12.179687-13.527344 23.679688-22.8125 54.964844-35.375 88.089844-35.375 33.121094 0 64.402344 12.558594 88.078125 35.367188 4.378906 4.21875 8.480469 8.773437 12.1875 13.535156 5.085937 6.53125 4.433594 15.941406-1.515625 21.886719zm0 0"/><path d="m256 291.289062c-12.066406 0-23.414062 4.699219-31.945312 13.230469s-13.230469 19.875-13.230469 31.941407c0 12.066406 4.699219 23.414062 13.230469 31.945312s19.878906 13.230469 31.945312 13.230469 23.410156-4.699219 31.941406-13.230469c17.613282-17.613281 17.613282-46.273438 0-63.886719-8.53125-8.53125-19.875-13.230469-31.941406-13.230469zm21.335938 66.511719c-5.699219 5.699219-13.277344 8.839844-21.335938 8.839844-8.0625 0-15.640625-3.140625-21.339844-8.839844-5.699218-5.699219-8.839844-13.277343-8.839844-21.335937 0-8.0625 3.140626-15.640625 8.839844-21.339844 5.699219-5.699219 13.277344-8.839844 21.339844-8.839844 8.058594 0 15.636719 3.140625 21.335938 8.839844 11.765624 11.765625 11.765624 30.910156 0 42.675781zm0 0"/><path d="m503.71875 109.960938c-3.355469-3.667969-6.855469-7.328126-10.402344-10.875-48.808594-48.789063-110.222656-81.015626-177.605468-93.191407-65.863282-11.898437-132.992188-4.03125-194.128907 22.761719-3.792969 1.664062-5.523437 6.085938-3.859375 9.878906 1.664063 3.792969 6.085938 5.523438 9.878906 3.859375 121.550782-53.265625 260.941407-26.847656 355.109376 67.300781 3.390624 3.390626 6.738281 6.886719 9.945312 10.390626 6.003906 6.558593 5.738281 16.660156-.601562 23-3.269532 3.265624-7.621094 5.023437-12.230469 4.90625-4.558594-.101563-8.757813-1.996094-11.816407-5.34375-2.878906-3.144532-5.871093-6.273438-8.894531-9.296876-54.128906-54.128906-126.257812-83.933593-203.113281-83.933593-.003906 0-.015625 0-.019531 0-76.863281.003906-149 29.824219-203.121094 83.960937-3.023437 3.027344-6.007813 6.144532-8.867187 9.269532-3.0625 3.347656-7.257813 5.246093-11.816407 5.34375-4.640625.109374-8.960937-1.640626-12.230469-4.90625-6.339843-6.339844-6.605468-16.441407-.605468-22.996094 3.199218-3.496094 6.539062-6.984375 9.921875-10.367188 21.933593-21.9375 46.699219-40.503906 73.597656-55.183594 3.636719-1.984374 4.976563-6.539062 2.992187-10.175781-1.984374-3.632812-6.539062-4.976562-10.175781-2.988281-28.160156 15.363281-54.074219 34.792969-77.023437 57.742188-3.535156 3.539062-7.027344 7.1875-10.375 10.84375-11.433594 12.492187-10.96875 31.699218 1.0625 43.730468 6.019531 6.015625 13.960937 9.304688 22.441406 9.304688.238281 0 .484375-.003906.726562-.007813 8.691407-.191406 16.699219-3.820312 22.550782-10.214843 2.710937-2.964844 5.539062-5.921876 8.40625-8.789063 51.289062-51.304687 119.660156-79.5625 192.515625-79.566406h.019531c72.84375 0 141.214844 28.246093 192.507812 79.539062 2.867188 2.867188 5.707032 5.835938 8.433594 8.816407 5.851563 6.394531 13.859375 10.023437 22.550782 10.214843 8.65625.1875 17.066406-3.199219 23.167968-9.296875 12.027344-12.03125 12.496094-31.238281 1.058594-43.730468zm0 0"/><path d="m420.6875 163.496094c-40.636719-38.734375-93.996094-61.910156-150.253906-65.261719-4.140625-.242187-7.6875 2.90625-7.933594 7.039063-.246094 4.136718 2.90625 7.6875 7.042969 7.933593 52.722656 3.140625 102.722656 24.851563 140.796875 61.144531 4.820312 4.597657 9.480468 9.445313 13.847656 14.410157 5.824219 6.621093 5.515625 16.675781-.703125 22.894531-3.292969 3.289062-7.65625 5.019531-12.316406 4.871094-4.6875-.152344-8.984375-2.179688-12.09375-5.71875-3.421875-3.890625-7.054688-7.695313-10.792969-11.3125-35.550781-34.355469-82.527344-53.273438-132.277344-53.277344h-.003906c-49.746094 0-96.722656 18.917969-132.273438 53.269531-3.75 3.621094-7.382812 7.429688-10.804687 11.320313-3.109375 3.539062-7.402344 5.566406-12.09375 5.71875-4.648437.15625-9.023437-1.582032-12.316406-4.875-6.210938-6.210938-6.5625-16.222656-.796875-22.785156 2.917968-3.324219 5.976562-6.605469 9.09375-9.753907 38.71875-39.164062 90.449218-62.566406 145.660156-65.894531 4.132812-.25 7.28125-3.804688 7.035156-7.9375-.25-4.132812-3.800781-7.292969-7.9375-7.035156-58.90625 3.550781-114.101562 28.527344-155.421875 70.320312-3.320312 3.359375-6.582031 6.859375-9.699219 10.402344-10.96875 12.488281-10.324218 31.503906 1.460938 43.289062 6.007812 6.003907 13.90625 9.273438 22.351562 9.273438.351563 0 .703126-.003906 1.054688-.015625 8.746094-.28125 17.085938-4.21875 22.875-10.804687 3.152344-3.589844 6.503906-7.101563 9.960938-10.4375 67.195312-64.925782 176.523437-64.921876 243.710937.007812 3.449219 3.332031 6.796875 6.839844 9.953125 10.429688 5.789062 6.585937 14.128906 10.523437 22.875 10.804687 8.847656.285156 17.148438-3.003906 23.402344-9.257813 11.796875-11.796874 12.390625-30.863281 1.359375-43.40625-4.65625-5.289062-9.621094-10.457031-14.761719-15.355468zm0 0"/></svg>